<?xml version="1.0" standalone="no"?>
<!DOCTYPE svg PUBLIC "-//W3C//DTD SVG 20010904//EN"
 "http://www.w3.org/TR/2001/REC-SVG-20010904/DTD/svg10.dtd">
<svg version="1.0" xmlns="http://www.w3.org/2000/svg"
 width="1920.000000pt" height="1920.000000pt" viewBox="0 0 1920.000000 1920.000000"
 preserveAspectRatio="xMidYMid meet">
<metadata>
Created by potrace 1.14, written by Peter Selinger 2001-2017
</metadata>
<g transform="translate(0.000000,1920.000000) scale(0.100000,-0.100000)"
fill="#000000" stroke="none">
<path d="M7990 18903 c-73 -164 -151 -334 -171 -378 -20 -44 -57 -125 -82
-180 -25 -55 -56 -125 -70 -155 -14 -30 -45 -100 -70 -155 -53 -118 -87 -192
-134 -295 -19 -41 -53 -115 -75 -165 -22 -49 -51 -114 -64 -142 -13 -29 -36
-79 -50 -110 -14 -32 -34 -76 -44 -98 -10 -22 -36 -80 -59 -128 -23 -49 -41
-91 -41 -92 0 -2 -22 -52 -50 -110 -27 -58 -50 -108 -50 -110 0 -1 -17 -41
-39 -87 -21 -45 -68 -148 -104 -228 -66 -147 -112 -249 -192 -425 -13 -27
-123 -270 -245 -540 -122 -269 -239 -527 -261 -572 -21 -45 -39 -84 -39 -86 0
-3 -17 -43 -39 -89 -73 -159 -101 -219 -101 -223 0 -2 -17 -41 -39 -87 -21
-45 -114 -249 -206 -453 -92 -203 -178 -395 -192 -425 -27 -58 -64 -140 -103
-225 -12 -27 -33 -72 -45 -100 -13 -27 -67 -146 -120 -264 -53 -117 -114 -252
-136 -298 -21 -47 -39 -87 -39 -88 0 -2 -18 -43 -41 -92 -23 -48 -58 -126 -79
-173 -21 -47 -51 -114 -68 -150 -16 -36 -94 -207 -172 -380 -78 -173 -157
-346 -175 -385 -18 -38 -41 -90 -53 -115 -80 -178 -309 -686 -332 -735 -16
-33 -49 -107 -75 -165 -53 -119 -76 -170 -115 -255 -150 -328 -125 -273 -300
-660 -67 -148 -132 -292 -145 -320 -13 -27 -55 -122 -95 -210 -40 -88 -89
-198 -111 -243 -21 -46 -39 -85 -39 -87 0 -2 -15 -36 -34 -77 -44 -95 -130
-285 -206 -453 -12 -27 -58 -129 -102 -225 -92 -201 -111 -243 -113 -250 -1
-3 -16 -36 -34 -75 -18 -38 -51 -110 -73 -160 -22 -49 -50 -112 -63 -140 -13
-27 -67 -147 -120 -265 -54 -118 -115 -253 -136 -298 -22 -46 -39 -85 -39 -87
0 -2 -22 -51 -50 -110 -27 -59 -50 -108 -50 -110 0 -2 -20 -45 -43 -97 -24
-51 -61 -131 -82 -178 -21 -47 -50 -112 -65 -145 -16 -33 -69 -152 -120 -265
-51 -113 -96 -209 -99 -215 -4 -5 -14 -26 -21 -45 -8 -19 -31 -73 -53 -120
-21 -47 -48 -105 -59 -130 -34 -78 -45 -103 -81 -180 -19 -41 -46 -101 -61
-132 -14 -32 -37 -82 -50 -110 -13 -29 -122 -269 -241 -533 -120 -264 -251
-554 -292 -645 -82 -180 -78 -172 -215 -475 -111 -246 -173 -413 -194 -520 -2
-11 -6 -31 -9 -45 -8 -39 -15 -72 -20 -105 -3 -16 -7 -41 -10 -55 -14 -79 -21
-362 -11 -445 2 -16 6 -55 10 -85 6 -54 12 -91 21 -140 3 -14 7 -34 9 -45 18
-91 81 -290 121 -380 49 -111 59 -130 113 -225 130 -227 302 -431 497 -588 39
-31 72 -59 75 -62 4 -5 74 -51 180 -120 47 -30 185 -98 270 -133 173 -70 291
-103 495 -136 118 -19 226 -20 7190 -20 3889 0 7097 4 7130 9 289 39 477 94
710 210 155 76 296 170 445 295 132 111 306 316 408 482 141 226 256 532 287
763 3 25 8 52 10 60 2 8 7 52 10 98 5 59 10 17005 6 17255 l-1 27 -5223 0
-5222 0 -135 -297z"/>
</g>
</svg>
